HIERARCHY
ROOT pelvis
{
  OFFSET 0 100 0
  CHANNELS 6 Xposition Yposition Zposition Zrotation Xrotation Yrotation
  JOINT pelvis_right_femur
  {
    OFFSET -10.78128 -3.44521 -0.5502486
    CHANNELS 3 Zrotation Xrotation Yrotation
    JOINT right_femur_tibia
    {
      OFFSET -0.8047443 -44.0398 -0.1307829
      CHANNELS 3 Zrotation Xrotation Yrotation
      JOINT right_tibia_foot
      {
        OFFSET 3.006224 -47.83518 -5
        CHANNELS 3 Zrotation Xrotation Yrotation
        End Site
        {
          OFFSET 0 -5 15
        }
      }
    }
  }
  JOINT pelvis_left_femur
  {
    OFFSET 10.78128 -3.44521 -0.5502486
    CHANNELS 3 Zrotation Xrotation Yrotation
    JOINT left_femur_tibia
    {
      OFFSET 0.8047443 -44.0398 -0.1307829
      CHANNELS 3 Zrotation Xrotation Yrotation
      JOINT left_tibia_foot
      {
        OFFSET -4.370144 -48.10324 -4.275266
        CHANNELS 3 Zrotation Xrotation Yrotation
        End Site
        {
          OFFSET 0 -5 15
        }
      }
    }
  }
  JOINT pelvis_spine1
  {
    OFFSET 0 6.468898 -3.129235
    CHANNELS 3 Zrotation Xrotation Yrotation
    JOINT spine1
    {
      OFFSET 0 23.15396 4.99043
      CHANNELS 3 Zrotation Xrotation Yrotation
      JOINT spine2
      {
        OFFSET 0 20.79997 -5.064912
        CHANNELS 3 Zrotation Xrotation Yrotation
        JOINT neck
        {
          OFFSET 0 14.38658 9.616178
          CHANNELS 3 Zrotation Xrotation Yrotation
          End Site
          {
            OFFSET 0 20 0
          }
        }
      }
      JOINT right_manubrium
      {
        OFFSET -5.722621 16.35077 3.967754
        CHANNELS 3 Zrotation Xrotation Yrotation
        JOINT right_clavicle
        {
          OFFSET -13.16364 1.694482 -4.693211
          CHANNELS 3 Zrotation Xrotation Yrotation
          JOINT right_humerus
          {
            OFFSET -28.5034 -0.3100689 -2.792744
            CHANNELS 3 Zrotation Xrotation Yrotation
            JOINT right_radius
            {
              OFFSET -25.15693 0.02248979 -1.271978
              CHANNELS 3 Zrotation Xrotation Yrotation
              End Site
              {
                OFFSET -15 0 0
              }
            }
          }
        }
      }
      JOINT left_manubrium
      {
        OFFSET 5.722621 16.35077 3.967754
        CHANNELS 3 Zrotation Xrotation Yrotation
        JOINT left_clavicle
        {
          OFFSET 13.16364 1.694482 -4.693211
          CHANNELS 3 Zrotation Xrotation Yrotation
          JOINT left_humerus
          {
            OFFSET 29.39168 -1.063119 -2.237045
            CHANNELS 3 Zrotation Xrotation Yrotation
            JOINT left_radius
            {
              OFFSET 24.59957 -0.9528479 0.9047498
              CHANNELS 3 Zrotation Xrotation Yrotation
              End Site
              {
                OFFSET 15 -0 -0
              }
            }
          }
        }
      }
    }
  }
}
MOTION
Frames: 17
Frame Time: 0.0416666666667
0 103.5113 0 2.839605 -1.694175 -0.2510652 1.159029 -10.63876 9.201758 -0 36.26956 -0 -4.355095 -18.79467 -2.636009 -9.104932 8.318389 -23.16622 -0 5.743776 -0 17.38033 -10.39313 29.95124 -5.389863 -4.826815 5.799183 2.876248 11.23814 -7.550739 1.194441 22.45659 6.015947 2.228655 -24.19599 9.092919 6.513394 -21.15556 12.27764 85.72853 37.96528 -17.86764 -0 0 16.01983 -8.346269 8.506904 5.95185 4.482852 -18.69689 -2.744628 -91.35332 20.46057 20.03788 0 0 -14.95315 14.1742 13.63106 -3.080746
0.3977937 103.4013 1.200536 2.414782 -1.379691 -0.5431264 1.811632 -12.50229 9.306558 -0 36.53382 -0 -4.286787 -18.05732 -2.672075 -8.747269 8.568386 -22.96316 -0 5.594697 -0 16.32783 -11.76777 29.72636 -5.059529 -4.625558 5.729989 2.812595 10.95067 -7.551534 1.288262 22.24015 6.178035 2.354606 -24.43459 9.319181 6.413601 -20.97907 12.15233 85.62347 37.32763 -17.9019 -0 0 16.32664 -8.232586 8.593292 5.53325 4.958194 -18.96808 -2.273378 -91.68475 20.64086 20.22452 0 0 -14.80394 14.15247 14.1122 -2.978902
0.7453207 103.2382 2.780921 1.271332 -0.2592625 -0.6446519 3.50161 -17.95348 9.25341 -0 35.44547 -0 -4.684227 -15.61093 -2.864225 -7.655221 9.633275 -22.2929 -0 4.99785 -0 12.64993 -15.97553 28.03449 -4.290867 -3.903255 5.23426 2.835198 10.07742 -7.75601 1.440834 21.63827 6.600838 2.78929 -25.16465 9.653014 6.175234 -20.33263 11.79369 85.49001 35.86305 -18.4305 -0 0 16.55477 -7.882467 8.662362 4.852984 6.003016 -19.68323 -1.289654 -92.51944 22.50778 20.63477 0 0 -15.29731 12.29487 15.42209 -0.636887
1.062788 102.9827 4.613839 0.7294526 0.491867 -0.6020555 4.321193 -20.8913 9.018287 -0 33.70747 -0 -5.107413 -13.99955 -2.813134 -7.127531 10.15649 -21.74416 -0 4.76708 -0 10.91146 -17.92965 26.81261 -3.95181 -3.52144 4.957728 2.916538 9.712055 -7.928974 1.475859 21.23923 6.796451 3.062746 -25.61884 9.708658 6.068321 -19.98923 11.64283 85.47484 35.38351 -18.77629 -0 0 16.46287 -7.840218 8.720405 4.682489 6.544208 -20.11875 -0.8829488 -92.70804 23.05211 20.58074 0 0 -15.76598 11.61911 15.78433 0.1581725
1.345961 102.6592 6.748727 0.08524061 1.324062 -0.4306857 5.267077 -24.06351 8.799373 -0 31.78508 -0 -5.638015 -12.25075 -2.776525 -6.495588 10.79708 -21.11826 -0 4.786424 -0 8.691976 -19.93791 25.17385 -3.52235 -3.08192 4.591959 3.020165 9.283251 -8.135196 1.501533 20.81639 7.003753 3.354923 -26.11099 9.740206 5.957595 -19.56778 11.47357 85.48779 34.86544 -19.19998 -0 0 16.27715 -7.762003 8.766582 4.539903 7.053469 -20.54168 -0.4839981 -92.94361 23.88366 20.56526 0 0 -16.32139 10.57465 16.1681 1.409904
1.59807 102.2638 9.172127 -0.4285588 2.037371 -0.1608055 5.996485 -26.61951 8.528642 -0 29.71996 -0 -6.157554 -10.69063 -2.710092 -5.982732 11.37291 -20.49506 -0 5.038497 -0 6.809781 -21.36208 23.57523 -3.179159 -2.716377 4.261119 3.132751 8.961318 -8.332628 1.498843 20.45577 7.154258 3.59907 -26.50423 9.69805 5.874162 -19.18186 11.34572 85.56303 34.55756 -19.62119 -0 0 15.9591 -7.763118 8.823436 4.519098 7.41871 -20.89388 -0.2422249 -92.99391 24.48903 20.40077 0 0 -16.91934 9.711467 16.32273 2.431909
1.819133 101.8151 11.91145 -0.9573605 2.722671 0.1984418 6.719856 -29.01154 8.256317 -0 27.5914 -0 -6.700875 -9.151051 -2.643193 -5.458501 11.97475 -19.82145 -0 5.636199 -0 4.798219 -22.51021 21.78957 -2.800498 -2.354727 3.90514 3.250014 8.650477 -8.534575 1.482992 20.11228 7.288862 3.826027 -26.86441 9.622201 5.797938 -18.7644 11.22518 85.68359 34.2925 -20.07432 -0 0 15.54881 -7.78659 8.895842 4.544632 7.705492 -21.20762 -0.06388762 -92.99416 25.11722 20.19995 0 0 -17.54442 8.773435 16.39124 3.559562
2.010807 101.3273 14.98728 -1.462928 3.33571 0.6277893 7.378534 -31.09195 7.964207 -0 25.42317 -0 -7.234164 -7.681311 -2.576551 -4.959111 12.57271 -19.102 -0 6.619267 -0 2.800741 -23.27285 19.91603 -2.41246 -2.018405 3.548358 3.366176 8.37959 -8.731489 1.452191 19.80156 7.397471 4.023133 -27.16014 9.506298 5.732264 -18.3296 11.12101 85.85977 34.09733 -20.55008 -0 0 15.03866 -7.861 8.997187 4.626752 7.89778 -21.47789 0.02806888 -92.899 25.67645 19.92296 0 0 -18.18995 7.859266 16.33468 4.673811
2.175009 100.8268 18.43654 -1.974559 3.880136 1.11044 8.015833 -32.88247 7.660465 -0 23.24791 -0 -7.759282 -6.261684 -2.515953 -4.458519 13.16478 -18.30758 -0 8.150977 -0 0.7380972 -23.62129 17.9089 -1.978569 -1.697635 3.183276 3.478531 8.138948 -8.922962 1.407327 19.51773 7.484864 4.191112 -27.39415 9.353303 5.674768 -17.86072 11.03069 86.09454 33.9407 -21.05215 -0 0 14.4268 -7.988965 9.139757 4.755571 7.993043 -21.70375 0.042815 -92.72255 26.1774 19.58515 0 0 -18.83514 6.948819 16.15889 5.808445
2.314951 100.3489 22.30161 -2.477048 4.318924 1.619693 8.610561 -34.25614 7.337362 -0 21.1137 -0 -8.252199 -4.929406 -2.471061 -3.966914 13.71739 -17.42215 -0 10.40656 -0 -1.332601 -23.44404 15.81412 -1.495962 -1.401234 2.823942 3.581852 7.945531 -9.100889 1.347072 19.27239 7.5444 4.319663 -27.53955 9.156986 5.627708 -17.35666 10.96038 86.39623 33.82113 -21.57505 -0 0 13.7024 -8.193322 9.339543 4.937112 7.969557 -21.87534 -0.0349105 -92.44243 26.57195 19.1712 0 0 -19.4612 6.081591 15.83807 6.920712
2.435665 99.94697 26.63245 -2.955887 4.603512 2.118196 9.147923 -35.03315 6.994933 -0 19.11549 -0 -8.685504 -3.746282 -2.456405 -3.489817 14.16554 -16.42382 -0 13.67285 -0 -3.361316 -22.59343 13.68024 -0.9527731 -1.136389 2.489515 3.669247 7.818802 -9.252762 1.270532 19.08116 7.567284 4.396067 -27.56383 8.910012 5.595081 -16.81551 10.91829 86.76687 33.72623 -22.10265 -0 0 12.85973 -8.496372 9.613091 5.176582 7.795403 -21.97394 -0.2196253 -92.04813 26.81217 18.6832 0 0 -20.02571 5.289826 15.34618 7.977797
2.544892 99.69707 31.47582 -3.367397 4.651181 2.550196 9.578562 -34.91321 6.631658 -0 17.40181 -0 -9.010888 -2.829128 -2.493934 -3.050317 14.37982 -15.30136 -0 18.30552 -0 -5.232827 -20.8921 11.62062 -0.3571358 -0.914614 2.221813 3.729421 7.793453 -9.354959 1.178701 18.9741 7.537375 4.402937 -27.41405 8.601889 5.584645 -16.24834 10.91857 87.19568 33.64343 -22.59718 -0 0 11.90644 -8.928132 9.974763 5.483673 7.428411 -21.97191 -0.5309028 -91.53318 26.83487 18.13428 0 0 -20.46793 4.617111 14.65284 8.928724
2.653632 99.70358 36.85634 -3.639425 4.350854 2.839421 9.82636 -33.4833 6.252731 -0 16.17196 -0 -9.170908 -2.353536 -2.603927 -2.684833 14.11679 -14.0603 -0 24.71657 -0 -6.79467 -18.18238 9.801505 0.2562193 -0.7421667 2.093453 3.746199 7.916135 -9.368593 1.077213 18.99453 7.431825 4.325233 -27.02694 8.220922 5.608693 -15.68717 10.98165 87.63839 33.55456 -22.98063 -0 0 10.88532 -9.516328 10.42496 5.869103 6.827514 -21.83582 -0.978851 -90.92127 26.57936 17.57628 0 0 -20.69761 4.104028 13.73959 9.716575
2.774748 100.0909 42.73771 -3.66439 3.584077 2.8977 9.782652 -30.28237 5.870615 -0 15.59422 -0 -9.124825 -2.530363 -2.780744 -2.445191 12.95908 -12.74187 -0 33.18706 -0 -7.876884 -14.45841 8.435254 0.7953247 -0.6056872 2.217734 3.69855 8.238058 -9.236172 0.9799095 19.19572 7.223797 4.164763 -26.34993 7.756282 5.682765 -15.20266 11.13313 87.98998 33.4468 -23.11489 -0 0 9.903054 -10.27395 10.92843 6.344344 5.98475 -21.54553 -1.542832 -90.28937 26.02188 17.11934 0 0 -20.61588 3.771474 12.62891 10.28943
2.917109 100.9643 48.96838 -3.322713 2.30409 2.66153 9.33357 -25.0362 5.499927 -0 15.6018 -0 -8.923038 -3.50342 -2.943322 -2.379452 10.29432 -11.43325 -0 43.45351 -0 -8.355944 -10.08587 7.722629 1.088221 -0.4498218 2.731781 3.566014 8.783873 -8.891138 0.9077671 19.61966 6.895224 3.964195 -25.39972 7.200388 5.817845 -14.91739 11.39585 88.06235 33.34219 -22.79586 -0 0 9.150214 -11.17021 11.38045 6.920377 4.98285 -21.13678 -2.135942 -89.78392 25.23382 16.93576 0 0 -20.17434 3.603736 11.43186 10.61741
3.074741 102.3178 55.2489 -2.550102 0.6750043 2.155922 8.428568 -18.0846 5.121009 -0 15.60843 -0 -8.792451 -5.151471 -2.900644 -2.482662 5.494336 -10.23877 -0 54.03383 -0 -8.214824 -6.002494 7.766921 0.908985 -0.1748433 3.716004 3.340561 9.493017 -8.296825 0.8726674 20.25528 6.465148 3.819172 -24.33504 6.552383 5.998181 -14.98942 11.76955 87.61767 33.34173 -21.8076 -0 0 8.861849 -12.11016 11.59525 7.610187 4.051972 -20.75717 -2.586 -89.57542 24.42587 17.18967 0 0 -19.49764 3.553718 10.38067 10.70991
3.221437 103.9245 61.21045 -1.44296 -0.8574844 1.524757 7.198433 -10.65439 4.633298 -0 14.56105 -0 -9.064276 -6.976979 -2.441384 -2.613716 -1.541457 -9.165642 -0 61.91073 -0 -7.562193 -3.490574 8.513352 0.1407483 0.2953705 5.048211 3.035792 10.17864 -7.511486 0.8462387 20.99727 6.0206 3.826942 -23.42866 5.835554 6.146626 -15.53314 12.20281 86.5025 33.59786 -20.05335 -0 0 9.196687 -12.99803 11.40498 8.435959 3.524425 -20.6407 -2.6983 -89.7181 23.8666 17.88052 0 0 -18.96149 3.579593 9.746362 10.63013
